<?xml version="1.0" encoding="UTF-8" standalone="no"?>
<!DOCTYPE svg PUBLIC "-//W3C//DTD SVG 1.1//EN"
 "http://www.w3.org/Graphics/SVG/1.1/DTD/svg11.dtd">
<!-- Generated by graphviz version 2.40.1 (20161225.0304)
 -->
<!-- Title: G Pages: 1 -->
<svg width="705pt" height="3369pt"
 viewBox="0.00 0.00 528.72 2527.00" xmlns="http://www.w3.org/2000/svg" xmlns:xlink="http://www.w3.org/1999/xlink">
<g id="graph0" class="graph" transform="scale(1.3333 1.3333) rotate(0) translate(4 2523)">
<title>G</title>
<polygon fill="#ffffff" stroke="transparent" points="-4,4 -4,-2523 524.7203,-2523 524.7203,4 -4,4"/>
<!-- 140225318996368 -->
<g id="node1" class="node">
<title>140225318996368</title>
<polygon fill="none" stroke="#000000" points="70.6515,-2482.5 70.6515,-2518.5 199.0169,-2518.5 199.0169,-2482.5 70.6515,-2482.5"/>
<text text-anchor="middle" x="134.8342" y="-2496.3" font-family="Times,serif" font-size="14.00" fill="#000000">input_3: InputLayer</text>
</g>
<!-- 140225319226576 -->
<g id="node3" class="node">
<title>140225319226576</title>
<polygon fill="none" stroke="#000000" points="121.5091,-2409.5 121.5091,-2445.5 294.1593,-2445.5 294.1593,-2409.5 121.5091,-2409.5"/>
<text text-anchor="middle" x="207.8342" y="-2423.3" font-family="Times,serif" font-size="14.00" fill="#000000">concatenate_6: Concatenate</text>
</g>
<!-- 140225318996368&#45;&gt;140225319226576 -->
<g id="edge1" class="edge">
<title>140225318996368&#45;&gt;140225319226576</title>
<path fill="none" stroke="#000000" d="M152.8791,-2482.4551C161.8288,-2473.5054 172.7872,-2462.547 182.5573,-2452.7769"/>
<polygon fill="#000000" stroke="#000000" points="185.1476,-2455.1363 189.7438,-2445.5904 180.1979,-2450.1866 185.1476,-2455.1363"/>
</g>
<!-- 140225318940240 -->
<g id="node2" class="node">
<title>140225318940240</title>
<polygon fill="none" stroke="#000000" points="216.6515,-2482.5 216.6515,-2518.5 345.0169,-2518.5 345.0169,-2482.5 216.6515,-2482.5"/>
<text text-anchor="middle" x="280.8342" y="-2496.3" font-family="Times,serif" font-size="14.00" fill="#000000">input_4: InputLayer</text>
</g>
<!-- 140225318940240&#45;&gt;140225319226576 -->
<g id="edge2" class="edge">
<title>140225318940240&#45;&gt;140225319226576</title>
<path fill="none" stroke="#000000" d="M262.7893,-2482.4551C253.8396,-2473.5054 242.8812,-2462.547 233.1111,-2452.7769"/>
<polygon fill="#000000" stroke="#000000" points="235.4705,-2450.1866 225.9246,-2445.5904 230.5208,-2455.1363 235.4705,-2450.1866"/>
</g>
<!-- 140225319225424 -->
<g id="node4" class="node">
<title>140225319225424</title>
<polygon fill="none" stroke="#000000" points="59,-2336.5 59,-2372.5 238.6684,-2372.5 238.6684,-2336.5 59,-2336.5"/>
<text text-anchor="middle" x="148.8342" y="-2350.3" font-family="Times,serif" font-size="14.00" fill="#000000">leaky_re_lu_19: LeakyReLU</text>
</g>
<!-- 140225319226576&#45;&gt;140225319225424 -->
<g id="edge3" class="edge">
<title>140225319226576&#45;&gt;140225319225424</title>
<path fill="none" stroke="#000000" d="M193.2499,-2409.4551C186.2294,-2400.7686 177.6794,-2390.1898 169.9627,-2380.642"/>
<polygon fill="#000000" stroke="#000000" points="172.4632,-2378.1677 163.4552,-2372.5904 167.019,-2382.5678 172.4632,-2378.1677"/>
</g>
<!-- 140225318473040 -->
<g id="node8" class="node">
<title>140225318473040</title>
<polygon fill="none" stroke="#000000" points="239.31,-2263.5 239.31,-2299.5 372.3584,-2299.5 372.3584,-2263.5 239.31,-2263.5"/>
<text text-anchor="middle" x="305.8342" y="-2277.3" font-family="Times,serif" font-size="14.00" fill="#000000">conv2d_37: Conv2D</text>
</g>
<!-- 140225319226576&#45;&gt;140225318473040 -->
<g id="edge7" class="edge">
<title>140225319226576&#45;&gt;140225318473040</title>
<path fill="none" stroke="#000000" d="M221.852,-2409.0598C229.6754,-2398.6066 239.4957,-2385.2132 247.8342,-2373 262.4406,-2351.6064 278.1186,-2326.7476 289.4872,-2308.3448"/>
<polygon fill="#000000" stroke="#000000" points="292.5969,-2309.9695 294.8545,-2299.618 286.6344,-2306.3024 292.5969,-2309.9695"/>
</g>
<!-- 140225319224656 -->
<g id="node5" class="node">
<title>140225319224656</title>
<polygon fill="none" stroke="#000000" points="66.31,-2263.5 66.31,-2299.5 199.3584,-2299.5 199.3584,-2263.5 66.31,-2263.5"/>
<text text-anchor="middle" x="132.8342" y="-2277.3" font-family="Times,serif" font-size="14.00" fill="#000000">conv2d_35: Conv2D</text>
</g>
<!-- 140225319225424&#45;&gt;140225319224656 -->
<g id="edge4" class="edge">
<title>140225319225424&#45;&gt;140225319224656</title>
<path fill="none" stroke="#000000" d="M144.8791,-2336.4551C143.0907,-2328.2951 140.9362,-2318.4652 138.9468,-2309.3887"/>
<polygon fill="#000000" stroke="#000000" points="142.3591,-2308.6091 136.7992,-2299.5904 135.5214,-2310.1079 142.3591,-2308.6091"/>
</g>
<!-- 140225319226640 -->
<g id="node6" class="node">
<title>140225319226640</title>
<polygon fill="none" stroke="#000000" points="0,-2190.5 0,-2226.5 179.6684,-2226.5 179.6684,-2190.5 0,-2190.5"/>
<text text-anchor="middle" x="89.8342" y="-2204.3" font-family="Times,serif" font-size="14.00" fill="#000000">leaky_re_lu_20: LeakyReLU</text>
</g>
<!-- 140225319224656&#45;&gt;140225319226640 -->
<g id="edge5" class="edge">
<title>140225319224656&#45;&gt;140225319226640</title>
<path fill="none" stroke="#000000" d="M122.205,-2263.4551C117.1917,-2254.9441 111.1083,-2244.6165 105.5745,-2235.2219"/>
<polygon fill="#000000" stroke="#000000" points="108.5813,-2233.4303 100.4902,-2226.5904 102.5499,-2236.9831 108.5813,-2233.4303"/>
</g>
<!-- 140225318956624 -->
<g id="node7" class="node">
<title>140225318956624</title>
<polygon fill="none" stroke="#000000" points="63.31,-2117.5 63.31,-2153.5 196.3584,-2153.5 196.3584,-2117.5 63.31,-2117.5"/>
<text text-anchor="middle" x="129.8342" y="-2131.3" font-family="Times,serif" font-size="14.00" fill="#000000">conv2d_36: Conv2D</text>
</g>
<!-- 140225319226640&#45;&gt;140225318956624 -->
<g id="edge6" class="edge">
<title>140225319226640&#45;&gt;140225318956624</title>
<path fill="none" stroke="#000000" d="M99.7218,-2190.4551C104.3373,-2182.0319 109.9278,-2171.8292 115.0327,-2162.5128"/>
<polygon fill="#000000" stroke="#000000" points="118.1857,-2164.042 119.9217,-2153.5904 112.0469,-2160.6782 118.1857,-2164.042"/>
</g>
<!-- 140225318956688 -->
<g id="node9" class="node">
<title>140225318956688</title>
<polygon fill="none" stroke="#000000" points="19.9481,-2044.5 19.9481,-2080.5 279.7203,-2080.5 279.7203,-2044.5 19.9481,-2044.5"/>
<text text-anchor="middle" x="149.8342" y="-2058.3" font-family="Times,serif" font-size="14.00" fill="#000000">average_pooling2d_10: AveragePooling2D</text>
</g>
<!-- 140225318956624&#45;&gt;140225318956688 -->
<g id="edge8" class="edge">
<title>140225318956624&#45;&gt;140225318956688</title>
<path fill="none" stroke="#000000" d="M134.778,-2117.4551C137.0136,-2109.2951 139.7068,-2099.4652 142.1935,-2090.3887"/>
<polygon fill="#000000" stroke="#000000" points="145.6111,-2091.1598 144.8779,-2080.5904 138.8599,-2089.3101 145.6111,-2091.1598"/>
</g>
<!-- 140225318473552 -->
<g id="node10" class="node">
<title>140225318473552</title>
<polygon fill="none" stroke="#000000" points="197.9481,-2190.5 197.9481,-2226.5 457.7203,-2226.5 457.7203,-2190.5 197.9481,-2190.5"/>
<text text-anchor="middle" x="327.8342" y="-2204.3" font-family="Times,serif" font-size="14.00" fill="#000000">average_pooling2d_11: AveragePooling2D</text>
</g>
<!-- 140225318473040&#45;&gt;140225318473552 -->
<g id="edge9" class="edge">
<title>140225318473040&#45;&gt;140225318473552</title>
<path fill="none" stroke="#000000" d="M311.2724,-2263.4551C313.7316,-2255.2951 316.694,-2245.4652 319.4294,-2236.3887"/>
<polygon fill="#000000" stroke="#000000" points="322.8479,-2237.175 322.3823,-2226.5904 316.1456,-2235.1551 322.8479,-2237.175"/>
</g>
<!-- 140225318572240 -->
<g id="node11" class="node">
<title>140225318572240</title>
<polygon fill="none" stroke="#000000" points="102.0652,-1971.5 102.0652,-2007.5 355.6032,-2007.5 355.6032,-1971.5 102.0652,-1971.5"/>
<text text-anchor="middle" x="228.8342" y="-1985.3" font-family="Times,serif" font-size="14.00" fill="#000000">tf_op_layer_add_23: TensorFlowOpLayer</text>
</g>
<!-- 140225318956688&#45;&gt;140225318572240 -->
<g id="edge10" class="edge">
<title>140225318956688&#45;&gt;140225318572240</title>
<path fill="none" stroke="#000000" d="M169.3623,-2044.4551C179.1425,-2035.4177 191.1394,-2024.3319 201.7903,-2014.4899"/>
<polygon fill="#000000" stroke="#000000" points="204.2878,-2016.9476 209.257,-2007.5904 199.5371,-2011.8065 204.2878,-2016.9476"/>
</g>
<!-- 140225318473552&#45;&gt;140225318572240 -->
<g id="edge11" class="edge">
<title>140225318473552&#45;&gt;140225318572240</title>
<path fill="none" stroke="#000000" d="M327.0114,-2190.4122C324.8478,-2158.6697 317.0253,-2091.7754 288.8342,-2044 282.2972,-2032.9218 272.7791,-2022.8065 263.242,-2014.3789"/>
<polygon fill="#000000" stroke="#000000" points="265.203,-2011.4557 255.2914,-2007.7125 260.7054,-2016.8196 265.203,-2011.4557"/>
</g>
<!-- 140225318518544 -->
<g id="node12" class="node">
<title>140225318518544</title>
<polygon fill="none" stroke="#000000" points="80,-1898.5 80,-1934.5 259.6684,-1934.5 259.6684,-1898.5 80,-1898.5"/>
<text text-anchor="middle" x="169.8342" y="-1912.3" font-family="Times,serif" font-size="14.00" fill="#000000">leaky_re_lu_21: LeakyReLU</text>
</g>
<!-- 140225318572240&#45;&gt;140225318518544 -->
<g id="edge12" class="edge">
<title>140225318572240&#45;&gt;140225318518544</title>
<path fill="none" stroke="#000000" d="M214.2499,-1971.4551C207.2294,-1962.7686 198.6794,-1952.1898 190.9627,-1942.642"/>
<polygon fill="#000000" stroke="#000000" points="193.4632,-1940.1677 184.4552,-1934.5904 188.019,-1944.5678 193.4632,-1940.1677"/>
</g>
<!-- 140225318639504 -->
<g id="node16" class="node">
<title>140225318639504</title>
<polygon fill="none" stroke="#000000" points="260.31,-1825.5 260.31,-1861.5 393.3584,-1861.5 393.3584,-1825.5 260.31,-1825.5"/>
<text text-anchor="middle" x="326.8342" y="-1839.3" font-family="Times,serif" font-size="14.00" fill="#000000">conv2d_40: Conv2D</text>
</g>
<!-- 140225318572240&#45;&gt;140225318639504 -->
<g id="edge16" class="edge">
<title>140225318572240&#45;&gt;140225318639504</title>
<path fill="none" stroke="#000000" d="M242.852,-1971.0598C250.6754,-1960.6066 260.4957,-1947.2132 268.8342,-1935 283.4406,-1913.6064 299.1186,-1888.7476 310.4872,-1870.3448"/>
<polygon fill="#000000" stroke="#000000" points="313.5969,-1871.9695 315.8545,-1861.618 307.6344,-1868.3024 313.5969,-1871.9695"/>
</g>
<!-- 140225318574224 -->
<g id="node13" class="node">
<title>140225318574224</title>
<polygon fill="none" stroke="#000000" points="87.31,-1825.5 87.31,-1861.5 220.3584,-1861.5 220.3584,-1825.5 87.31,-1825.5"/>
<text text-anchor="middle" x="153.8342" y="-1839.3" font-family="Times,serif" font-size="14.00" fill="#000000">conv2d_38: Conv2D</text>
</g>
<!-- 140225318518544&#45;&gt;140225318574224 -->
<g id="edge13" class="edge">
<title>140225318518544&#45;&gt;140225318574224</title>
<path fill="none" stroke="#000000" d="M165.8791,-1898.4551C164.0907,-1890.2951 161.9362,-1880.4652 159.9468,-1871.3887"/>
<polygon fill="#000000" stroke="#000000" points="163.3591,-1870.6091 157.7992,-1861.5904 156.5214,-1872.1079 163.3591,-1870.6091"/>
</g>
<!-- 140225318575568 -->
<g id="node14" class="node">
<title>140225318575568</title>
<polygon fill="none" stroke="#000000" points="21,-1752.5 21,-1788.5 200.6684,-1788.5 200.6684,-1752.5 21,-1752.5"/>
<text text-anchor="middle" x="110.8342" y="-1766.3" font-family="Times,serif" font-size="14.00" fill="#000000">leaky_re_lu_22: LeakyReLU</text>
</g>
<!-- 140225318574224&#45;&gt;140225318575568 -->
<g id="edge14" class="edge">
<title>140225318574224&#45;&gt;140225318575568</title>
<path fill="none" stroke="#000000" d="M143.205,-1825.4551C138.1917,-1816.9441 132.1083,-1806.6165 126.5745,-1797.2219"/>
<polygon fill="#000000" stroke="#000000" points="129.5813,-1795.4303 121.4902,-1788.5904 123.5499,-1798.9831 129.5813,-1795.4303"/>
</g>
<!-- 140225318586064 -->
<g id="node15" class="node">
<title>140225318586064</title>
<polygon fill="none" stroke="#000000" points="84.31,-1679.5 84.31,-1715.5 217.3584,-1715.5 217.3584,-1679.5 84.31,-1679.5"/>
<text text-anchor="middle" x="150.8342" y="-1693.3" font-family="Times,serif" font-size="14.00" fill="#000000">conv2d_39: Conv2D</text>
</g>
<!-- 140225318575568&#45;&gt;140225318586064 -->
<g id="edge15" class="edge">
<title>140225318575568&#45;&gt;140225318586064</title>
<path fill="none" stroke="#000000" d="M120.7218,-1752.4551C125.3373,-1744.0319 130.9278,-1733.8292 136.0327,-1724.5128"/>
<polygon fill="#000000" stroke="#000000" points="139.1857,-1726.042 140.9217,-1715.5904 133.0469,-1722.6782 139.1857,-1726.042"/>
</g>
<!-- 140225318586128 -->
<g id="node17" class="node">
<title>140225318586128</title>
<polygon fill="none" stroke="#000000" points="40.9481,-1606.5 40.9481,-1642.5 300.7203,-1642.5 300.7203,-1606.5 40.9481,-1606.5"/>
<text text-anchor="middle" x="170.8342" y="-1620.3" font-family="Times,serif" font-size="14.00" fill="#000000">average_pooling2d_12: AveragePooling2D</text>
</g>
<!-- 140225318586064&#45;&gt;140225318586128 -->
<g id="edge17" class="edge">
<title>140225318586064&#45;&gt;140225318586128</title>
<path fill="none" stroke="#000000" d="M155.778,-1679.4551C158.0136,-1671.2951 160.7068,-1661.4652 163.1935,-1652.3887"/>
<polygon fill="#000000" stroke="#000000" points="166.6111,-1653.1598 165.8779,-1642.5904 159.8599,-1651.3101 166.6111,-1653.1598"/>
</g>
<!-- 140225318638992 -->
<g id="node18" class="node">
<title>140225318638992</title>
<polygon fill="none" stroke="#000000" points="218.9481,-1752.5 218.9481,-1788.5 478.7203,-1788.5 478.7203,-1752.5 218.9481,-1752.5"/>
<text text-anchor="middle" x="348.8342" y="-1766.3" font-family="Times,serif" font-size="14.00" fill="#000000">average_pooling2d_13: AveragePooling2D</text>
</g>
<!-- 140225318639504&#45;&gt;140225318638992 -->
<g id="edge18" class="edge">
<title>140225318639504&#45;&gt;140225318638992</title>
<path fill="none" stroke="#000000" d="M332.2724,-1825.4551C334.7316,-1817.2951 337.694,-1807.4652 340.4294,-1798.3887"/>
<polygon fill="#000000" stroke="#000000" points="343.8479,-1799.175 343.3823,-1788.5904 337.1456,-1797.1551 343.8479,-1799.175"/>
</g>
<!-- 140225318690768 -->
<g id="node19" class="node">
<title>140225318690768</title>
<polygon fill="none" stroke="#000000" points="123.0652,-1533.5 123.0652,-1569.5 376.6032,-1569.5 376.6032,-1533.5 123.0652,-1533.5"/>
<text text-anchor="middle" x="249.8342" y="-1547.3" font-family="Times,serif" font-size="14.00" fill="#000000">tf_op_layer_add_24: TensorFlowOpLayer</text>
</g>
<!-- 140225318586128&#45;&gt;140225318690768 -->
<g id="edge19" class="edge">
<title>140225318586128&#45;&gt;140225318690768</title>
<path fill="none" stroke="#000000" d="M190.3623,-1606.4551C200.1425,-1597.4177 212.1394,-1586.3319 222.7903,-1576.4899"/>
<polygon fill="#000000" stroke="#000000" points="225.2878,-1578.9476 230.257,-1569.5904 220.5371,-1573.8065 225.2878,-1578.9476"/>
</g>
<!-- 140225318638992&#45;&gt;140225318690768 -->
<g id="edge20" class="edge">
<title>140225318638992&#45;&gt;140225318690768</title>
<path fill="none" stroke="#000000" d="M348.0114,-1752.4122C345.8478,-1720.6697 338.0253,-1653.7754 309.8342,-1606 303.2972,-1594.9218 293.7791,-1584.8065 284.242,-1576.3789"/>
<polygon fill="#000000" stroke="#000000" points="286.203,-1573.4557 276.2914,-1569.7125 281.7054,-1578.8196 286.203,-1573.4557"/>
</g>
<!-- 140225319224592 -->
<g id="node20" class="node">
<title>140225319224592</title>
<polygon fill="none" stroke="#000000" points="116.8401,-1460.5 116.8401,-1496.5 382.8283,-1496.5 382.8283,-1460.5 116.8401,-1460.5"/>
<text text-anchor="middle" x="249.8342" y="-1474.3" font-family="Times,serif" font-size="14.00" fill="#000000">batch_normalization_9: BatchNormalization</text>
</g>
<!-- 140225318690768&#45;&gt;140225319224592 -->
<g id="edge21" class="edge">
<title>140225318690768&#45;&gt;140225319224592</title>
<path fill="none" stroke="#000000" d="M249.8342,-1533.4551C249.8342,-1525.3828 249.8342,-1515.6764 249.8342,-1506.6817"/>
<polygon fill="#000000" stroke="#000000" points="253.3343,-1506.5903 249.8342,-1496.5904 246.3343,-1506.5904 253.3343,-1506.5903"/>
</g>
<!-- 140225318195920 -->
<g id="node21" class="node">
<title>140225318195920</title>
<polygon fill="none" stroke="#000000" points="101,-1387.5 101,-1423.5 280.6684,-1423.5 280.6684,-1387.5 101,-1387.5"/>
<text text-anchor="middle" x="190.8342" y="-1401.3" font-family="Times,serif" font-size="14.00" fill="#000000">leaky_re_lu_23: LeakyReLU</text>
</g>
<!-- 140225319224592&#45;&gt;140225318195920 -->
<g id="edge22" class="edge">
<title>140225319224592&#45;&gt;140225318195920</title>
<path fill="none" stroke="#000000" d="M235.2499,-1460.4551C228.2294,-1451.7686 219.6794,-1441.1898 211.9627,-1431.642"/>
<polygon fill="#000000" stroke="#000000" points="214.4632,-1429.1677 205.4552,-1423.5904 209.019,-1433.5678 214.4632,-1429.1677"/>
</g>
<!-- 140225318432720 -->
<g id="node25" class="node">
<title>140225318432720</title>
<polygon fill="none" stroke="#000000" points="281.31,-1314.5 281.31,-1350.5 414.3584,-1350.5 414.3584,-1314.5 281.31,-1314.5"/>
<text text-anchor="middle" x="347.8342" y="-1328.3" font-family="Times,serif" font-size="14.00" fill="#000000">conv2d_43: Conv2D</text>
</g>
<!-- 140225319224592&#45;&gt;140225318432720 -->
<g id="edge26" class="edge">
<title>140225319224592&#45;&gt;140225318432720</title>
<path fill="none" stroke="#000000" d="M263.852,-1460.0598C271.6754,-1449.6066 281.4957,-1436.2132 289.8342,-1424 304.4406,-1402.6064 320.1186,-1377.7476 331.4872,-1359.3448"/>
<polygon fill="#000000" stroke="#000000" points="334.5969,-1360.9695 336.8545,-1350.618 328.6344,-1357.3024 334.5969,-1360.9695"/>
</g>
<!-- 140225318356240 -->
<g id="node22" class="node">
<title>140225318356240</title>
<polygon fill="none" stroke="#000000" points="108.31,-1314.5 108.31,-1350.5 241.3584,-1350.5 241.3584,-1314.5 108.31,-1314.5"/>
<text text-anchor="middle" x="174.8342" y="-1328.3" font-family="Times,serif" font-size="14.00" fill="#000000">conv2d_41: Conv2D</text>
</g>
<!-- 140225318195920&#45;&gt;140225318356240 -->
<g id="edge23" class="edge">
<title>140225318195920&#45;&gt;140225318356240</title>
<path fill="none" stroke="#000000" d="M186.8791,-1387.4551C185.0907,-1379.2951 182.9362,-1369.4652 180.9468,-1360.3887"/>
<polygon fill="#000000" stroke="#000000" points="184.3591,-1359.6091 178.7992,-1350.5904 177.5214,-1361.1079 184.3591,-1359.6091"/>
</g>
<!-- 140225318196688 -->
<g id="node23" class="node">
<title>140225318196688</title>
<polygon fill="none" stroke="#000000" points="42,-1241.5 42,-1277.5 221.6684,-1277.5 221.6684,-1241.5 42,-1241.5"/>
<text text-anchor="middle" x="131.8342" y="-1255.3" font-family="Times,serif" font-size="14.00" fill="#000000">leaky_re_lu_24: LeakyReLU</text>
</g>
<!-- 140225318356240&#45;&gt;140225318196688 -->
<g id="edge24" class="edge">
<title>140225318356240&#45;&gt;140225318196688</title>
<path fill="none" stroke="#000000" d="M164.205,-1314.4551C159.1917,-1305.9441 153.1083,-1295.6165 147.5745,-1286.2219"/>
<polygon fill="#000000" stroke="#000000" points="150.5813,-1284.4303 142.4902,-1277.5904 144.5499,-1287.9831 150.5813,-1284.4303"/>
</g>
<!-- 140225318391248 -->
<g id="node24" class="node">
<title>140225318391248</title>
<polygon fill="none" stroke="#000000" points="105.31,-1168.5 105.31,-1204.5 238.3584,-1204.5 238.3584,-1168.5 105.31,-1168.5"/>
<text text-anchor="middle" x="171.8342" y="-1182.3" font-family="Times,serif" font-size="14.00" fill="#000000">conv2d_42: Conv2D</text>
</g>
<!-- 140225318196688&#45;&gt;140225318391248 -->
<g id="edge25" class="edge">
<title>140225318196688&#45;&gt;140225318391248</title>
<path fill="none" stroke="#000000" d="M141.7218,-1241.4551C146.3373,-1233.0319 151.9278,-1222.8292 157.0327,-1213.5128"/>
<polygon fill="#000000" stroke="#000000" points="160.1857,-1215.042 161.9217,-1204.5904 154.0469,-1211.6782 160.1857,-1215.042"/>
</g>
<!-- 140225318391312 -->
<g id="node26" class="node">
<title>140225318391312</title>
<polygon fill="none" stroke="#000000" points="61.9481,-1095.5 61.9481,-1131.5 321.7203,-1131.5 321.7203,-1095.5 61.9481,-1095.5"/>
<text text-anchor="middle" x="191.8342" y="-1109.3" font-family="Times,serif" font-size="14.00" fill="#000000">average_pooling2d_14: AveragePooling2D</text>
</g>
<!-- 140225318391248&#45;&gt;140225318391312 -->
<g id="edge27" class="edge">
<title>140225318391248&#45;&gt;140225318391312</title>
<path fill="none" stroke="#000000" d="M176.778,-1168.4551C179.0136,-1160.2951 181.7068,-1150.4652 184.1935,-1141.3887"/>
<polygon fill="#000000" stroke="#000000" points="187.6111,-1142.1598 186.8779,-1131.5904 180.8599,-1140.3101 187.6111,-1142.1598"/>
</g>
<!-- 140225320057488 -->
<g id="node27" class="node">
<title>140225320057488</title>
<polygon fill="none" stroke="#000000" points="239.9481,-1241.5 239.9481,-1277.5 499.7203,-1277.5 499.7203,-1241.5 239.9481,-1241.5"/>
<text text-anchor="middle" x="369.8342" y="-1255.3" font-family="Times,serif" font-size="14.00" fill="#000000">average_pooling2d_15: AveragePooling2D</text>
</g>
<!-- 140225318432720&#45;&gt;140225320057488 -->
<g id="edge28" class="edge">
<title>140225318432720&#45;&gt;140225320057488</title>
<path fill="none" stroke="#000000" d="M353.2724,-1314.4551C355.7316,-1306.2951 358.694,-1296.4652 361.4294,-1287.3887"/>
<polygon fill="#000000" stroke="#000000" points="364.8479,-1288.175 364.3823,-1277.5904 358.1456,-1286.1551 364.8479,-1288.175"/>
</g>
<!-- 140225319623632 -->
<g id="node28" class="node">
<title>140225319623632</title>
<polygon fill="none" stroke="#000000" points="144.0652,-1022.5 144.0652,-1058.5 397.6032,-1058.5 397.6032,-1022.5 144.0652,-1022.5"/>
<text text-anchor="middle" x="270.8342" y="-1036.3" font-family="Times,serif" font-size="14.00" fill="#000000">tf_op_layer_add_25: TensorFlowOpLayer</text>
</g>
<!-- 140225318391312&#45;&gt;140225319623632 -->
<g id="edge29" class="edge">
<title>140225318391312&#45;&gt;140225319623632</title>
<path fill="none" stroke="#000000" d="M211.3623,-1095.4551C221.1425,-1086.4177 233.1394,-1075.3319 243.7903,-1065.4899"/>
<polygon fill="#000000" stroke="#000000" points="246.2878,-1067.9476 251.257,-1058.5904 241.5371,-1062.8065 246.2878,-1067.9476"/>
</g>
<!-- 140225320057488&#45;&gt;140225319623632 -->
<g id="edge30" class="edge">
<title>140225320057488&#45;&gt;140225319623632</title>
<path fill="none" stroke="#000000" d="M369.0114,-1241.4122C366.8478,-1209.6697 359.0253,-1142.7754 330.8342,-1095 324.2972,-1083.9218 314.7791,-1073.8065 305.242,-1065.3789"/>
<polygon fill="#000000" stroke="#000000" points="307.203,-1062.4557 297.2914,-1058.7125 302.7054,-1067.8196 307.203,-1062.4557"/>
</g>
<!-- 140225318680016 -->
<g id="node29" class="node">
<title>140225318680016</title>
<polygon fill="none" stroke="#000000" points="134.3401,-949.5 134.3401,-985.5 407.3283,-985.5 407.3283,-949.5 134.3401,-949.5"/>
<text text-anchor="middle" x="270.8342" y="-963.3" font-family="Times,serif" font-size="14.00" fill="#000000">batch_normalization_10: BatchNormalization</text>
</g>
<!-- 140225319623632&#45;&gt;140225318680016 -->
<g id="edge31" class="edge">
<title>140225319623632&#45;&gt;140225318680016</title>
<path fill="none" stroke="#000000" d="M270.8342,-1022.4551C270.8342,-1014.3828 270.8342,-1004.6764 270.8342,-995.6817"/>
<polygon fill="#000000" stroke="#000000" points="274.3343,-995.5903 270.8342,-985.5904 267.3343,-995.5904 274.3343,-995.5903"/>
</g>
<!-- 140225317959824 -->
<g id="node30" class="node">
<title>140225317959824</title>
<polygon fill="none" stroke="#000000" points="122,-876.5 122,-912.5 301.6684,-912.5 301.6684,-876.5 122,-876.5"/>
<text text-anchor="middle" x="211.8342" y="-890.3" font-family="Times,serif" font-size="14.00" fill="#000000">leaky_re_lu_25: LeakyReLU</text>
</g>
<!-- 140225318680016&#45;&gt;140225317959824 -->
<g id="edge32" class="edge">
<title>140225318680016&#45;&gt;140225317959824</title>
<path fill="none" stroke="#000000" d="M256.2499,-949.4551C249.2294,-940.7686 240.6794,-930.1898 232.9627,-920.642"/>
<polygon fill="#000000" stroke="#000000" points="235.4632,-918.1677 226.4552,-912.5904 230.019,-922.5678 235.4632,-918.1677"/>
</g>
<!-- 140225317966928 -->
<g id="node34" class="node">
<title>140225317966928</title>
<polygon fill="none" stroke="#000000" points="302.31,-803.5 302.31,-839.5 435.3584,-839.5 435.3584,-803.5 302.31,-803.5"/>
<text text-anchor="middle" x="368.8342" y="-817.3" font-family="Times,serif" font-size="14.00" fill="#000000">conv2d_46: Conv2D</text>
</g>
<!-- 140225318680016&#45;&gt;140225317966928 -->
<g id="edge36" class="edge">
<title>140225318680016&#45;&gt;140225317966928</title>
<path fill="none" stroke="#000000" d="M284.852,-949.0598C292.6754,-938.6066 302.4957,-925.2132 310.8342,-913 325.4406,-891.6064 341.1186,-866.7476 352.4872,-848.3448"/>
<polygon fill="#000000" stroke="#000000" points="355.5969,-849.9695 357.8545,-839.618 349.6344,-846.3024 355.5969,-849.9695"/>
</g>
<!-- 140225319316816 -->
<g id="node31" class="node">
<title>140225319316816</title>
<polygon fill="none" stroke="#000000" points="129.31,-803.5 129.31,-839.5 262.3584,-839.5 262.3584,-803.5 129.31,-803.5"/>
<text text-anchor="middle" x="195.8342" y="-817.3" font-family="Times,serif" font-size="14.00" fill="#000000">conv2d_44: Conv2D</text>
</g>
<!-- 140225317959824&#45;&gt;140225319316816 -->
<g id="edge33" class="edge">
<title>140225317959824&#45;&gt;140225319316816</title>
<path fill="none" stroke="#000000" d="M207.8791,-876.4551C206.0907,-868.2951 203.9362,-858.4652 201.9468,-849.3887"/>
<polygon fill="#000000" stroke="#000000" points="205.3591,-848.6091 199.7992,-839.5904 198.5214,-850.1079 205.3591,-848.6091"/>
</g>
<!-- 140225317959888 -->
<g id="node32" class="node">
<title>140225317959888</title>
<polygon fill="none" stroke="#000000" points="63,-730.5 63,-766.5 242.6684,-766.5 242.6684,-730.5 63,-730.5"/>
<text text-anchor="middle" x="152.8342" y="-744.3" font-family="Times,serif" font-size="14.00" fill="#000000">leaky_re_lu_26: LeakyReLU</text>
</g>
<!-- 140225319316816&#45;&gt;140225317959888 -->
<g id="edge34" class="edge">
<title>140225319316816&#45;&gt;140225317959888</title>
<path fill="none" stroke="#000000" d="M185.205,-803.4551C180.1917,-794.9441 174.1083,-784.6165 168.5745,-775.2219"/>
<polygon fill="#000000" stroke="#000000" points="171.5813,-773.4303 163.4902,-766.5904 165.5499,-776.9831 171.5813,-773.4303"/>
</g>
<!-- 140225319286224 -->
<g id="node33" class="node">
<title>140225319286224</title>
<polygon fill="none" stroke="#000000" points="126.31,-657.5 126.31,-693.5 259.3584,-693.5 259.3584,-657.5 126.31,-657.5"/>
<text text-anchor="middle" x="192.8342" y="-671.3" font-family="Times,serif" font-size="14.00" fill="#000000">conv2d_45: Conv2D</text>
</g>
<!-- 140225317959888&#45;&gt;140225319286224 -->
<g id="edge35" class="edge">
<title>140225317959888&#45;&gt;140225319286224</title>
<path fill="none" stroke="#000000" d="M162.7218,-730.4551C167.3373,-722.0319 172.9278,-711.8292 178.0327,-702.5128"/>
<polygon fill="#000000" stroke="#000000" points="181.1857,-704.042 182.9217,-693.5904 175.0469,-700.6782 181.1857,-704.042"/>
</g>
<!-- 140225319288336 -->
<g id="node35" class="node">
<title>140225319288336</title>
<polygon fill="none" stroke="#000000" points="82.9481,-584.5 82.9481,-620.5 342.7203,-620.5 342.7203,-584.5 82.9481,-584.5"/>
<text text-anchor="middle" x="212.8342" y="-598.3" font-family="Times,serif" font-size="14.00" fill="#000000">average_pooling2d_16: AveragePooling2D</text>
</g>
<!-- 140225319286224&#45;&gt;140225319288336 -->
<g id="edge37" class="edge">
<title>140225319286224&#45;&gt;140225319288336</title>
<path fill="none" stroke="#000000" d="M197.778,-657.4551C200.0136,-649.2951 202.7068,-639.4652 205.1935,-630.3887"/>
<polygon fill="#000000" stroke="#000000" points="208.6111,-631.1598 207.8779,-620.5904 201.8599,-629.3101 208.6111,-631.1598"/>
</g>
<!-- 140225317966800 -->
<g id="node36" class="node">
<title>140225317966800</title>
<polygon fill="none" stroke="#000000" points="260.9481,-730.5 260.9481,-766.5 520.7203,-766.5 520.7203,-730.5 260.9481,-730.5"/>
<text text-anchor="middle" x="390.8342" y="-744.3" font-family="Times,serif" font-size="14.00" fill="#000000">average_pooling2d_17: AveragePooling2D</text>
</g>
<!-- 140225317966928&#45;&gt;140225317966800 -->
<g id="edge38" class="edge">
<title>140225317966928&#45;&gt;140225317966800</title>
<path fill="none" stroke="#000000" d="M374.2724,-803.4551C376.7316,-795.2951 379.694,-785.4652 382.4294,-776.3887"/>
<polygon fill="#000000" stroke="#000000" points="385.8479,-777.175 385.3823,-766.5904 379.1456,-775.1551 385.8479,-777.175"/>
</g>
<!-- 140225318029392 -->
<g id="node37" class="node">
<title>140225318029392</title>
<polygon fill="none" stroke="#000000" points="165.0652,-511.5 165.0652,-547.5 418.6032,-547.5 418.6032,-511.5 165.0652,-511.5"/>
<text text-anchor="middle" x="291.8342" y="-525.3" font-family="Times,serif" font-size="14.00" fill="#000000">tf_op_layer_add_26: TensorFlowOpLayer</text>
</g>
<!-- 140225319288336&#45;&gt;140225318029392 -->
<g id="edge39" class="edge">
<title>140225319288336&#45;&gt;140225318029392</title>
<path fill="none" stroke="#000000" d="M232.3623,-584.4551C242.1425,-575.4177 254.1394,-564.3319 264.7903,-554.4899"/>
<polygon fill="#000000" stroke="#000000" points="267.2878,-556.9476 272.257,-547.5904 262.5371,-551.8065 267.2878,-556.9476"/>
</g>
<!-- 140225317966800&#45;&gt;140225318029392 -->
<g id="edge40" class="edge">
<title>140225317966800&#45;&gt;140225318029392</title>
<path fill="none" stroke="#000000" d="M390.0114,-730.4122C387.8478,-698.6697 380.0253,-631.7754 351.8342,-584 345.2972,-572.9218 335.7791,-562.8065 326.242,-554.3789"/>
<polygon fill="#000000" stroke="#000000" points="328.203,-551.4557 318.2914,-547.7125 323.7054,-556.8196 328.203,-551.4557"/>
</g>
<!-- 140225319693712 -->
<g id="node38" class="node">
<title>140225319693712</title>
<polygon fill="none" stroke="#000000" points="155.3401,-438.5 155.3401,-474.5 428.3283,-474.5 428.3283,-438.5 155.3401,-438.5"/>
<text text-anchor="middle" x="291.8342" y="-452.3" font-family="Times,serif" font-size="14.00" fill="#000000">batch_normalization_11: BatchNormalization</text>
</g>
<!-- 140225318029392&#45;&gt;140225319693712 -->
<g id="edge41" class="edge">
<title>140225318029392&#45;&gt;140225319693712</title>
<path fill="none" stroke="#000000" d="M291.8342,-511.4551C291.8342,-503.3828 291.8342,-493.6764 291.8342,-484.6817"/>
<polygon fill="#000000" stroke="#000000" points="295.3343,-484.5903 291.8342,-474.5904 288.3343,-484.5904 295.3343,-484.5903"/>
</g>
<!-- 140225318052240 -->
<g id="node39" class="node">
<title>140225318052240</title>
<polygon fill="none" stroke="#000000" points="143,-365.5 143,-401.5 322.6684,-401.5 322.6684,-365.5 143,-365.5"/>
<text text-anchor="middle" x="232.8342" y="-379.3" font-family="Times,serif" font-size="14.00" fill="#000000">leaky_re_lu_27: LeakyReLU</text>
</g>
<!-- 140225319693712&#45;&gt;140225318052240 -->
<g id="edge42" class="edge">
<title>140225319693712&#45;&gt;140225318052240</title>
<path fill="none" stroke="#000000" d="M277.2499,-438.4551C270.2294,-429.7686 261.6794,-419.1898 253.9627,-409.642"/>
<polygon fill="#000000" stroke="#000000" points="256.4632,-407.1677 247.4552,-401.5904 251.019,-411.5678 256.4632,-407.1677"/>
</g>
<!-- 140225317756624 -->
<g id="node43" class="node">
<title>140225317756624</title>
<polygon fill="none" stroke="#000000" points="301.31,-292.5 301.31,-328.5 434.3584,-328.5 434.3584,-292.5 301.31,-292.5"/>
<text text-anchor="middle" x="367.8342" y="-306.3" font-family="Times,serif" font-size="14.00" fill="#000000">conv2d_49: Conv2D</text>
</g>
<!-- 140225319693712&#45;&gt;140225317756624 -->
<g id="edge46" class="edge">
<title>140225319693712&#45;&gt;140225317756624</title>
<path fill="none" stroke="#000000" d="M307.1656,-438.1378C315.2015,-427.929 324.8059,-414.744 331.8342,-402 343.1026,-381.5677 352.6009,-356.869 359.0069,-338.2849"/>
<polygon fill="#000000" stroke="#000000" points="362.3751,-339.2493 362.2393,-328.6553 355.7389,-337.0217 362.3751,-339.2493"/>
</g>
<!-- 140225317675920 -->
<g id="node40" class="node">
<title>140225317675920</title>
<polygon fill="none" stroke="#000000" points="150.31,-292.5 150.31,-328.5 283.3584,-328.5 283.3584,-292.5 150.31,-292.5"/>
<text text-anchor="middle" x="216.8342" y="-306.3" font-family="Times,serif" font-size="14.00" fill="#000000">conv2d_47: Conv2D</text>
</g>
<!-- 140225318052240&#45;&gt;140225317675920 -->
<g id="edge43" class="edge">
<title>140225318052240&#45;&gt;140225317675920</title>
<path fill="none" stroke="#000000" d="M228.8791,-365.4551C227.0907,-357.2951 224.9362,-347.4652 222.9468,-338.3887"/>
<polygon fill="#000000" stroke="#000000" points="226.3591,-337.6091 220.7992,-328.5904 219.5214,-339.1079 226.3591,-337.6091"/>
</g>
<!-- 140225318053008 -->
<g id="node41" class="node">
<title>140225318053008</title>
<polygon fill="none" stroke="#000000" points="143,-219.5 143,-255.5 322.6684,-255.5 322.6684,-219.5 143,-219.5"/>
<text text-anchor="middle" x="232.8342" y="-233.3" font-family="Times,serif" font-size="14.00" fill="#000000">leaky_re_lu_28: LeakyReLU</text>
</g>
<!-- 140225317675920&#45;&gt;140225318053008 -->
<g id="edge44" class="edge">
<title>140225317675920&#45;&gt;140225318053008</title>
<path fill="none" stroke="#000000" d="M220.7893,-292.4551C222.5777,-284.2951 224.7322,-274.4652 226.7216,-265.3887"/>
<polygon fill="#000000" stroke="#000000" points="230.147,-266.1079 228.8692,-255.5904 223.3093,-264.6091 230.147,-266.1079"/>
</g>
<!-- 140225317723600 -->
<g id="node42" class="node">
<title>140225317723600</title>
<polygon fill="none" stroke="#000000" points="186.31,-146.5 186.31,-182.5 319.3584,-182.5 319.3584,-146.5 186.31,-146.5"/>
<text text-anchor="middle" x="252.8342" y="-160.3" font-family="Times,serif" font-size="14.00" fill="#000000">conv2d_48: Conv2D</text>
</g>
<!-- 140225318053008&#45;&gt;140225317723600 -->
<g id="edge45" class="edge">
<title>140225318053008&#45;&gt;140225317723600</title>
<path fill="none" stroke="#000000" d="M237.778,-219.4551C240.0136,-211.2951 242.7068,-201.4652 245.1935,-192.3887"/>
<polygon fill="#000000" stroke="#000000" points="248.6111,-193.1598 247.8779,-182.5904 241.8599,-191.3101 248.6111,-193.1598"/>
</g>
<!-- 140225317723792 -->
<g id="node44" class="node">
<title>140225317723792</title>
<polygon fill="none" stroke="#000000" points="173.0652,-73.5 173.0652,-109.5 426.6032,-109.5 426.6032,-73.5 173.0652,-73.5"/>
<text text-anchor="middle" x="299.8342" y="-87.3" font-family="Times,serif" font-size="14.00" fill="#000000">tf_op_layer_add_27: TensorFlowOpLayer</text>
</g>
<!-- 140225317723600&#45;&gt;140225317723792 -->
<g id="edge47" class="edge">
<title>140225317723600&#45;&gt;140225317723792</title>
<path fill="none" stroke="#000000" d="M264.4522,-146.4551C269.9318,-137.9441 276.5811,-127.6165 282.6297,-118.2219"/>
<polygon fill="#000000" stroke="#000000" points="285.7164,-119.8931 288.187,-109.5904 279.8307,-116.1037 285.7164,-119.8931"/>
</g>
<!-- 140225317756624&#45;&gt;140225317723792 -->
<g id="edge48" class="edge">
<title>140225317756624&#45;&gt;140225317723792</title>
<path fill="none" stroke="#000000" d="M365.0857,-292.282C360.0914,-261.4556 348.215,-197.3501 328.8342,-146 325.3322,-136.7214 320.5731,-127.0301 315.9231,-118.4366"/>
<polygon fill="#000000" stroke="#000000" points="318.9233,-116.6307 310.9849,-109.6142 312.8151,-120.0498 318.9233,-116.6307"/>
</g>
<!-- 140225317802960 -->
<g id="node45" class="node">
<title>140225317802960</title>
<polygon fill="none" stroke="#000000" points="156.3485,-.5 156.3485,-36.5 443.3199,-36.5 443.3199,-.5 156.3485,-.5"/>
<text text-anchor="middle" x="299.8342" y="-14.3" font-family="Times,serif" font-size="14.00" fill="#000000">tf_op_layer_discriminator: TensorFlowOpLayer</text>
</g>
<!-- 140225317723792&#45;&gt;140225317802960 -->
<g id="edge49" class="edge">
<title>140225317723792&#45;&gt;140225317802960</title>
<path fill="none" stroke="#000000" d="M299.8342,-73.4551C299.8342,-65.3828 299.8342,-55.6764 299.8342,-46.6817"/>
<polygon fill="#000000" stroke="#000000" points="303.3343,-46.5903 299.8342,-36.5904 296.3343,-46.5904 303.3343,-46.5903"/>
</g>
</g>
</svg>
